<svg width="1811" height="809" viewBox="0 0 1811 809" fill="none" xmlns="http://www.w3.org/2000/svg">
<g clip-path="url(#clip0_60_729)">
<path d="M379.121 267H304.215C248.869 267 204.002 311.867 204.002 367.213V442.119C204.002 497.465 248.869 542.332 304.215 542.332H379.121C434.467 542.332 479.334 497.465 479.334 442.119V367.213C479.334 311.867 434.467 267 379.121 267Z" fill="#572DFF"/>
<path d="M417.903 436.622C422.032 426.793 424.312 416.027 424.312 404.704C424.312 359.233 387.226 322.071 341.756 322.071C296.108 322.071 259.098 359.056 259.123 404.704C259.123 450.175 296.285 487.286 341.756 487.286C353.079 487.286 363.845 485.006 373.674 480.877C379.779 478.318 386.568 477.862 393.002 479.458L410.962 483.942C417.017 485.462 422.488 479.965 420.968 473.936L416.485 455.976C414.889 449.541 415.345 442.752 417.903 436.647V436.622Z" fill="white"/>
<path d="M341.677 450.58C362.627 450.58 380.866 438.876 390.163 421.625C391.201 419.7 390.517 417.294 388.617 416.154L373.824 407.287C371.746 406.046 369.087 406.882 367.972 409.035C363.058 418.585 353.127 425.121 341.652 425.121C330.177 425.121 320.247 418.585 315.332 409.035C314.218 406.882 311.583 406.046 309.481 407.287L294.687 416.154C292.812 417.294 292.103 419.7 293.142 421.625C302.438 438.851 320.677 450.58 341.627 450.58H341.677Z" fill="#572DFF"/>
<path d="M650.551 386.643C651.539 386.643 652.274 385.655 651.919 384.717C647.765 373.343 640.444 363.135 630.894 356.624C620.811 349.759 608.905 346.264 595.53 346.264C584.08 346.264 573.618 348.898 564.397 354.117C555.177 359.335 547.78 366.706 542.46 376.054C537.14 385.401 534.43 396.091 534.43 407.871C534.43 419.65 537.14 430.34 542.46 439.612C547.78 448.908 555.177 456.255 564.397 461.448C573.618 466.666 584.08 469.301 595.53 469.301C609.032 469.301 620.963 465.83 630.97 459.016C640.494 452.556 647.765 442.322 651.919 430.821C652.248 429.884 651.539 428.896 650.551 428.896H624.105C623.573 428.896 623.091 429.2 622.838 429.682C620.229 434.799 616.378 439.206 611.895 441.841C607.158 444.627 601.585 446.021 595.353 446.021C588.665 446.021 582.636 444.45 577.469 441.334C572.276 438.218 568.197 433.735 565.284 427.984C562.371 422.209 560.902 415.445 560.902 407.82C560.902 400.195 562.371 393.28 565.284 387.58C568.172 381.906 572.276 377.447 577.469 374.331C582.662 371.216 588.691 369.645 595.353 369.645C601.585 369.645 607.158 371.013 611.895 373.749C616.378 376.333 620.203 380.715 622.813 385.832C623.066 386.313 623.547 386.617 624.079 386.617H650.526L650.551 386.643Z" fill="black"/>
<path d="M739.544 375.674C733.87 372.482 727.309 370.886 720.039 370.886C713.706 370.886 707.854 372.077 702.636 374.458C698.355 376.408 694.758 378.992 691.844 382.159V342.109C691.844 341.324 691.211 340.665 690.401 340.665H667.475C666.69 340.665 666.031 341.298 666.031 342.109V466.868C666.031 467.654 666.665 468.312 667.475 468.312H690.401C691.186 468.312 691.844 467.679 691.844 466.868V415.343C691.844 408.175 693.668 402.627 697.265 398.802C700.837 395.027 705.828 393.102 712.059 393.102C718.291 393.102 723.079 395.027 726.6 398.802C730.146 402.601 731.919 408.175 731.919 415.343V466.868C731.919 467.654 732.553 468.312 733.363 468.312H756.289C757.074 468.312 757.733 467.679 757.733 466.868V412.126C757.733 403.513 756.137 396.015 752.945 389.86C749.753 383.653 745.244 378.891 739.544 375.699V375.674Z" fill="black"/>
<path d="M844.19 383.779C841.201 380.359 837.452 377.446 833.044 375.065C827.648 372.177 821.29 370.708 814.146 370.708C805.964 370.708 798.44 372.76 791.803 376.788C785.166 380.841 779.847 386.667 775.996 394.165C772.146 401.638 770.195 410.302 770.195 419.928C770.195 429.554 772.146 438.42 775.996 445.918C779.847 453.467 785.166 459.395 791.803 463.549C798.44 467.704 805.913 469.806 813.969 469.806C821.112 469.806 827.547 468.312 833.044 465.348C837.527 462.941 841.277 459.978 844.19 456.507V466.843C844.19 467.628 844.823 468.286 845.634 468.286H868.711C869.496 468.286 870.155 467.653 870.155 466.843V373.647C870.155 372.861 869.522 372.203 868.711 372.203H845.634C844.848 372.203 844.19 372.836 844.19 373.647V383.754V383.779ZM799.834 405.742C802.063 401.79 804.976 398.75 808.548 396.699C812.12 394.647 816.046 393.608 820.251 393.608C824.456 393.608 828.459 394.672 832.132 396.775C835.78 398.877 838.743 401.942 840.922 405.894C843.1 409.846 844.19 414.684 844.19 420.257C844.19 425.83 843.1 430.669 840.922 434.62C838.769 438.572 835.805 441.637 832.132 443.74C824.887 447.894 815.945 448.046 808.624 443.664C805.001 441.511 802.038 438.344 799.834 434.291C797.604 430.213 796.49 425.4 796.49 419.928C796.49 414.456 797.604 409.694 799.834 405.742Z" fill="black"/>
<path d="M968.441 381.778C961.373 374.533 952.001 370.86 940.551 370.86C934.547 370.86 928.949 372.076 923.908 374.432C919.753 376.383 916.156 378.992 913.217 382.184V373.647C913.217 372.862 912.584 372.203 911.774 372.203H888.848C888.063 372.203 887.404 372.836 887.404 373.647V466.843C887.404 467.628 888.038 468.287 888.848 468.287H911.774C912.559 468.287 913.217 467.653 913.217 466.843V415.318C913.217 408.149 915.041 402.601 918.638 398.776C922.21 395.002 927.201 393.076 933.432 393.076C939.664 393.076 944.452 395.002 947.973 398.776C951.519 402.576 953.293 408.149 953.293 415.318V466.843C953.293 467.628 953.926 468.287 954.736 468.287H977.662C978.447 468.287 979.106 467.653 979.106 466.843V412.101C979.106 399.207 975.534 389.023 968.466 381.778H968.441Z" fill="black"/>
<path d="M1077.22 381.778C1070.15 374.533 1060.78 370.86 1049.33 370.86C1043.32 370.86 1037.73 372.076 1032.68 374.432C1028.53 376.383 1024.93 378.992 1021.99 382.184V373.647C1021.99 372.862 1021.36 372.203 1020.55 372.203H997.626C996.84 372.203 996.182 372.836 996.182 373.647V466.843C996.182 467.628 996.815 468.287 997.626 468.287H1020.55C1021.34 468.287 1021.99 467.653 1021.99 466.843V415.318C1021.99 408.149 1023.82 402.601 1027.42 398.776C1030.99 395.002 1035.98 393.076 1042.21 393.076C1048.44 393.076 1053.23 395.002 1056.75 398.776C1060.3 402.576 1062.07 408.149 1062.07 415.318V466.843C1062.07 467.628 1062.7 468.287 1063.51 468.287H1086.44C1087.22 468.287 1087.88 467.653 1087.88 466.843V412.101C1087.88 399.207 1084.31 389.023 1077.24 381.778H1077.22Z" fill="black"/>
<path d="M1196.05 428.389C1196.76 428.389 1197.37 427.882 1197.47 427.173C1197.85 424.538 1198.13 421.169 1198.13 418.205C1198.13 408.908 1196.13 400.549 1192.15 393.355C1188.17 386.135 1182.5 380.511 1175.28 376.585C1168.08 372.684 1159.85 370.683 1150.78 370.683C1141.71 370.683 1132.92 372.735 1125.68 376.762C1118.41 380.79 1112.68 386.642 1108.66 394.14C1104.63 401.613 1102.6 410.403 1102.6 420.257C1102.6 430.111 1104.68 438.724 1108.76 446.197C1112.84 453.695 1118.64 459.572 1125.96 463.651C1133.25 467.729 1141.61 469.806 1150.81 469.806C1162.18 469.806 1171.93 466.792 1179.76 460.864C1187.06 455.342 1192.56 447.16 1195.52 438.597C1195.85 437.685 1195.11 436.723 1194.15 436.723H1169.38C1168.84 436.723 1168.36 437.027 1168.14 437.483C1164.51 444.272 1158.51 448.097 1150.33 448.097C1144.5 448.097 1139.54 446.248 1135.56 442.6C1131.81 439.155 1129.55 434.392 1128.87 428.414H1196.1L1196.05 428.389ZM1150.12 392.24C1156.08 392.24 1161.14 394.013 1165.25 397.509C1169.1 400.802 1171.15 405.033 1171.48 410.403H1129.07C1130.06 404.881 1132.37 400.498 1135.94 397.332C1139.74 393.963 1144.53 392.24 1150.12 392.24Z" fill="black"/>
<path d="M1238.05 340.665H1215.15C1214.35 340.665 1213.7 341.312 1213.7 342.109V466.843C1213.7 467.641 1214.35 468.287 1215.15 468.287H1238.05C1238.84 468.287 1239.49 467.641 1239.49 466.843V342.109C1239.49 341.312 1238.84 340.665 1238.05 340.665Z" fill="black"/>
<path d="M1361.7 347.782H1275.64C1274.86 347.782 1274.2 348.416 1274.2 349.226V367.566C1274.2 368.352 1274.83 369.01 1275.64 369.01H1305.79V466.867C1305.79 467.653 1306.42 468.311 1307.23 468.311H1330.16C1330.94 468.311 1331.6 467.678 1331.6 466.867V369.01H1361.72C1362.51 369.01 1363.16 368.377 1363.16 367.566V349.226C1363.16 348.441 1362.53 347.782 1361.72 347.782H1361.7Z" fill="black"/>
<path d="M1430.14 383.779C1427.15 380.359 1423.4 377.446 1418.99 375.065C1413.6 372.177 1407.24 370.708 1400.1 370.708C1391.92 370.708 1384.39 372.76 1377.75 376.788C1371.12 380.841 1365.8 386.667 1361.92 394.165C1358.07 401.638 1356.12 410.302 1356.12 419.928C1356.12 429.554 1358.07 438.42 1361.92 445.918C1365.77 453.467 1371.09 459.395 1377.73 463.549C1384.37 467.704 1391.84 469.806 1399.89 469.806C1407.04 469.806 1413.47 468.312 1418.97 465.348C1423.45 462.941 1427.2 459.978 1430.12 456.507V466.843C1430.12 467.628 1430.75 468.286 1431.56 468.286H1454.64C1455.42 468.286 1456.08 467.653 1456.08 466.843V373.647C1456.08 372.861 1455.45 372.203 1454.64 372.203H1431.56C1430.77 372.203 1430.12 372.836 1430.12 373.647V383.754L1430.14 383.779ZM1385.78 405.742C1387.99 401.79 1390.93 398.75 1394.5 396.699C1398.07 394.647 1402 393.608 1406.2 393.608C1410.41 393.608 1414.41 394.672 1418.08 396.775C1421.76 398.877 1424.69 401.942 1426.87 405.894C1429.05 409.846 1430.14 414.684 1430.14 420.257C1430.14 425.83 1429.05 430.669 1426.87 434.62C1424.72 438.572 1421.76 441.637 1418.08 443.74C1410.84 447.894 1401.9 448.046 1394.57 443.664C1390.95 441.511 1387.99 438.344 1385.78 434.291C1383.56 430.213 1382.44 425.4 1382.44 419.928C1382.44 414.456 1383.56 409.694 1385.78 405.742Z" fill="black"/>
<path d="M1498.77 340.665H1475.87C1475.07 340.665 1474.42 341.312 1474.42 342.109V466.843C1474.42 467.641 1475.07 468.287 1475.87 468.287H1498.77C1499.56 468.287 1500.21 467.641 1500.21 466.843V342.109C1500.21 341.312 1499.56 340.665 1498.77 340.665Z" fill="black"/>
<path d="M1566.22 420.41L1606.42 374.61C1607.23 373.672 1606.57 372.229 1605.33 372.229H1575.59C1575.16 372.229 1574.73 372.431 1574.48 372.786L1544.84 410.226V342.109C1544.84 341.324 1544.21 340.665 1543.4 340.665H1520.47C1519.69 340.665 1519.03 341.298 1519.03 342.109V466.868C1519.03 467.654 1519.66 468.312 1520.47 468.312H1543.4C1544.18 468.312 1544.84 467.679 1544.84 466.868V430.137L1574.81 467.755C1575.09 468.11 1575.49 468.287 1575.92 468.287H1605.66C1606.9 468.287 1607.56 466.818 1606.73 465.906L1566.2 420.435L1566.22 420.41Z" fill="black"/>
</g>
<defs>
<clipPath id="clip0_60_729">
<rect width="1403.11" height="275.332" fill="white" transform="translate(204 267)"/>
</clipPath>
</defs>
</svg>
