<svg width="1811" height="809" viewBox="0 0 1811 809" fill="none" xmlns="http://www.w3.org/2000/svg">
<g clip-path="url(#clip0_1155_83)">
<path d="M652.169 387.194C653.154 387.194 653.887 386.208 653.533 385.274C649.391 373.932 642.091 363.753 632.568 357.261C622.514 350.415 610.642 346.93 597.305 346.93C585.888 346.93 575.456 349.557 566.261 354.76C557.067 359.964 549.691 367.314 544.386 376.635C539.082 385.956 536.379 396.615 536.379 408.361C536.379 420.107 539.082 430.767 544.386 440.012C549.691 449.282 557.067 456.607 566.261 461.785C575.456 466.989 585.888 469.616 597.305 469.616C610.769 469.616 622.666 466.155 632.644 459.36C642.141 452.919 649.391 442.714 653.533 431.246C653.862 430.312 653.154 429.327 652.169 429.327H625.798C625.268 429.327 624.788 429.63 624.535 430.11C621.933 435.212 618.094 439.607 613.623 442.234C608.899 445.013 603.342 446.402 597.128 446.402C590.46 446.402 584.448 444.836 579.295 441.729C574.117 438.622 570.05 434.151 567.145 428.417C564.24 422.658 562.775 415.914 562.775 408.311C562.775 400.708 564.24 393.812 567.145 388.128C570.025 382.47 574.117 378.024 579.295 374.917C584.473 371.81 590.485 370.244 597.128 370.244C603.342 370.244 608.899 371.608 613.623 374.336C618.094 376.913 621.908 381.283 624.51 386.385C624.762 386.865 625.242 387.168 625.773 387.168H652.144L652.169 387.194Z" fill="white"/>
<path d="M740.909 376.257C735.251 373.074 728.709 371.482 721.459 371.482C715.144 371.482 709.309 372.67 704.106 375.044C699.837 376.989 696.25 379.566 693.345 382.723V342.787C693.345 342.004 692.714 341.348 691.905 341.348H669.045C668.262 341.348 667.605 341.979 667.605 342.787V467.191C667.605 467.974 668.237 468.631 669.045 468.631H691.905C692.688 468.631 693.345 468 693.345 467.191V415.813C693.345 408.665 695.164 403.133 698.751 399.319C702.312 395.555 707.288 393.635 713.502 393.635C719.716 393.635 724.49 395.555 728.001 399.319C731.538 403.108 733.306 408.665 733.306 415.813V467.191C733.306 467.974 733.937 468.631 734.746 468.631H757.606C758.389 468.631 759.045 468 759.045 467.191V412.605C759.045 404.017 757.454 396.54 754.271 390.402C751.089 384.213 746.592 379.464 740.909 376.282V376.257Z" fill="white"/>
<path d="M845.256 384.34C842.276 380.93 838.537 378.025 834.142 375.65C828.762 372.771 822.421 371.306 815.298 371.306C807.139 371.306 799.637 373.352 793.019 377.368C786.401 381.41 781.097 387.219 777.257 394.696C773.418 402.148 771.473 410.787 771.473 420.385C771.473 429.984 773.418 438.825 777.257 446.302C781.097 453.829 786.401 459.74 793.019 463.882C799.637 468.025 807.089 470.121 815.121 470.121C822.245 470.121 828.661 468.631 834.142 465.676C838.613 463.276 842.351 460.321 845.256 456.86V467.166C845.256 467.949 845.888 468.606 846.696 468.606H869.708C870.491 468.606 871.147 467.974 871.147 467.166V374.236C871.147 373.453 870.516 372.796 869.708 372.796H846.696C845.913 372.796 845.256 373.427 845.256 374.236V384.314V384.34ZM801.027 406.24C803.249 402.299 806.154 399.268 809.716 397.222C813.277 395.176 817.193 394.14 821.386 394.14C825.579 394.14 829.57 395.201 833.233 397.298C836.87 399.394 839.825 402.451 841.998 406.391C844.17 410.332 845.256 415.156 845.256 420.714C845.256 426.271 844.17 431.095 841.998 435.036C839.851 438.976 836.895 442.033 833.233 444.129C826.008 448.272 817.092 448.423 809.792 444.054C806.179 441.906 803.224 438.749 801.027 434.707C798.804 430.641 797.692 425.841 797.692 420.385C797.692 414.929 798.804 410.18 801.027 406.24Z" fill="white"/>
<path d="M969.153 382.344C962.106 375.12 952.76 371.457 941.342 371.457C935.356 371.457 929.774 372.669 924.747 375.019C920.604 376.964 917.017 379.565 914.087 382.748V374.236C914.087 373.453 913.456 372.796 912.647 372.796H889.787C889.004 372.796 888.348 373.427 888.348 374.236V467.166C888.348 467.949 888.979 468.606 889.787 468.606H912.647C913.43 468.606 914.087 467.974 914.087 467.166V415.788C914.087 408.639 915.906 403.107 919.493 399.293C923.054 395.529 928.031 393.61 934.245 393.61C940.458 393.61 945.232 395.529 948.744 399.293C952.28 403.082 954.048 408.639 954.048 415.788V467.166C954.048 467.949 954.68 468.606 955.488 468.606H978.348C979.131 468.606 979.788 467.974 979.788 467.166V412.58C979.788 399.723 976.226 389.568 969.179 382.344H969.153Z" fill="white"/>
<path d="M1077.62 382.344C1070.57 375.12 1061.23 371.457 1049.81 371.457C1043.82 371.457 1038.24 372.669 1033.21 375.019C1029.07 376.964 1025.48 379.565 1022.55 382.748V374.236C1022.55 373.453 1021.92 372.796 1021.11 372.796H998.254C997.471 372.796 996.814 373.427 996.814 374.236V467.166C996.814 467.949 997.446 468.606 998.254 468.606H1021.11C1021.9 468.606 1022.55 467.974 1022.55 467.166V415.788C1022.55 408.639 1024.37 403.107 1027.96 399.293C1031.52 395.529 1036.5 393.61 1042.71 393.61C1048.92 393.61 1053.7 395.529 1057.21 399.293C1060.75 403.082 1062.52 408.639 1062.52 415.788V467.166C1062.52 467.949 1063.15 468.606 1063.96 468.606H1086.82C1087.6 468.606 1088.25 467.974 1088.25 467.166V412.58C1088.25 399.723 1084.69 389.568 1077.65 382.344H1077.62Z" fill="white"/>
<path d="M1196.11 428.821C1196.82 428.821 1197.43 428.316 1197.53 427.608C1197.91 424.981 1198.19 421.622 1198.19 418.666C1198.19 409.396 1196.19 401.06 1192.22 393.887C1188.26 386.688 1182.6 381.08 1175.4 377.165C1168.23 373.275 1160.02 371.279 1150.98 371.279C1141.93 371.279 1133.17 373.325 1125.94 377.342C1118.69 381.358 1112.98 387.193 1108.97 394.67C1104.95 402.121 1102.93 410.886 1102.93 420.712C1102.93 430.538 1105 439.127 1109.07 446.578C1113.14 454.055 1118.92 459.915 1126.22 463.982C1133.5 468.049 1141.83 470.12 1151 470.12C1162.34 470.12 1172.07 467.114 1179.87 461.204C1187.15 455.697 1192.63 447.538 1195.58 439C1195.91 438.091 1195.18 437.131 1194.22 437.131H1169.52C1168.99 437.131 1168.51 437.434 1168.28 437.889C1164.67 444.659 1158.68 448.473 1150.52 448.473C1144.71 448.473 1139.76 446.629 1135.79 442.991C1132.06 439.556 1129.81 434.807 1129.13 428.846H1196.16L1196.11 428.821ZM1150.32 392.775C1156.25 392.775 1161.31 394.543 1165.4 398.029C1169.24 401.313 1171.28 405.531 1171.61 410.886H1129.33C1130.31 405.38 1132.61 401.01 1136.17 397.852C1139.96 394.493 1144.74 392.775 1150.32 392.775Z" fill="white"/>
<path d="M1237.99 341.348H1215.16C1214.36 341.348 1213.72 341.992 1213.72 342.787V467.166C1213.72 467.961 1214.36 468.606 1215.16 468.606H1237.99C1238.79 468.606 1239.43 467.961 1239.43 467.166V342.787C1239.43 341.992 1238.79 341.348 1237.99 341.348Z" fill="white"/>
<path d="M1361.29 348.444H1275.48C1274.7 348.444 1274.04 349.076 1274.04 349.884V368.172C1274.04 368.955 1274.67 369.612 1275.48 369.612H1305.54V467.19C1305.54 467.973 1306.17 468.63 1306.98 468.63H1329.84C1330.62 468.63 1331.28 467.998 1331.28 467.19V369.612H1361.31C1362.1 369.612 1362.75 368.98 1362.75 368.172V349.884C1362.75 349.101 1362.12 348.444 1361.31 348.444H1361.29Z" fill="white"/>
<path d="M1429.54 384.34C1426.56 380.93 1422.82 378.025 1418.42 375.65C1413.04 372.771 1406.7 371.306 1399.58 371.306C1391.42 371.306 1383.92 373.352 1377.3 377.368C1370.68 381.41 1365.38 387.219 1361.51 394.696C1357.68 402.148 1355.73 410.787 1355.73 420.385C1355.73 429.984 1357.68 438.825 1361.51 446.302C1365.35 453.829 1370.66 459.74 1377.28 463.882C1383.89 468.025 1391.35 470.121 1399.38 470.121C1406.5 470.121 1412.92 468.631 1418.4 465.676C1422.87 463.276 1426.61 460.321 1429.51 456.86V467.166C1429.51 467.949 1430.15 468.606 1430.95 468.606H1453.97C1454.75 468.606 1455.41 467.974 1455.41 467.166V374.236C1455.41 373.453 1454.77 372.796 1453.97 372.796H1430.95C1430.17 372.796 1429.51 373.427 1429.51 374.236V384.314L1429.54 384.34ZM1385.31 406.24C1387.51 402.299 1390.44 399.268 1394 397.222C1397.56 395.176 1401.48 394.14 1405.67 394.14C1409.86 394.14 1413.85 395.201 1417.52 397.298C1421.18 399.394 1424.11 402.451 1426.28 406.391C1428.45 410.332 1429.54 415.156 1429.54 420.714C1429.54 426.271 1428.45 431.095 1426.28 435.036C1424.13 438.976 1421.18 442.033 1417.52 444.129C1410.29 448.272 1401.37 448.423 1394.07 444.054C1390.46 441.906 1387.51 438.749 1385.31 434.707C1383.09 430.641 1381.98 425.841 1381.98 420.385C1381.98 414.929 1383.09 410.18 1385.31 406.24Z" fill="white"/>
<path d="M1497.97 341.348H1475.13C1474.34 341.348 1473.69 341.992 1473.69 342.787V467.166C1473.69 467.961 1474.34 468.606 1475.13 468.606H1497.97C1498.76 468.606 1499.41 467.961 1499.41 467.166V342.787C1499.41 341.992 1498.76 341.348 1497.97 341.348Z" fill="white"/>
<path d="M1565.23 420.865L1605.32 375.196C1606.13 374.261 1605.47 372.821 1604.23 372.821H1574.58C1574.15 372.821 1573.72 373.023 1573.47 373.377L1543.91 410.711V342.787C1543.91 342.004 1543.28 341.348 1542.47 341.348H1519.61C1518.83 341.348 1518.17 341.979 1518.17 342.787V467.191C1518.17 467.974 1518.8 468.631 1519.61 468.631H1542.47C1543.25 468.631 1543.91 468 1543.91 467.191V430.565L1573.79 468.075C1574.07 468.429 1574.48 468.606 1574.91 468.606H1604.56C1605.8 468.606 1606.45 467.141 1605.62 466.231L1565.21 420.89L1565.23 420.865Z" fill="white"/>
<path fill-rule="evenodd" clip-rule="evenodd" d="M465.248 367.816C465.248 321.638 427.69 284.08 381.512 284.08H306.815C260.637 284.08 223.079 321.638 223.079 367.816V442.513C223.079 488.691 260.637 526.249 306.815 526.249H381.512C427.69 526.249 465.248 488.691 465.248 442.513V367.816ZM306.815 267.892H381.512C436.688 267.892 481.423 312.626 481.436 367.816V442.513C481.436 497.703 436.702 542.437 381.512 542.437H306.815C251.625 542.437 206.891 497.703 206.891 442.513V367.816C206.891 312.626 251.625 267.892 306.815 267.892ZM416.132 435.358C413.715 441.121 413.276 447.543 414.788 453.617L419.027 470.583C420.474 476.268 415.305 481.463 409.58 480.029L392.611 475.79C386.536 474.291 380.113 474.718 374.349 477.134C365.07 481.036 354.899 483.194 344.198 483.194C301.239 483.194 266.125 448.138 266.125 405.186C266.099 362.066 301.239 327.126 344.198 327.126C387.157 327.126 422.193 362.234 422.193 405.186C422.193 415.872 420.035 426.042 416.132 435.332V435.358ZM344.12 448.525C363.907 448.525 381.134 437.464 389.922 421.17C390.905 419.348 390.258 417.074 388.462 416.001L374.491 407.628C372.527 406.452 370.007 407.253 368.96 409.282C364.32 418.301 354.938 424.478 344.094 424.478C333.251 424.478 323.869 418.301 319.229 409.282C318.169 407.24 315.688 406.452 313.697 407.628L299.727 416.001C297.956 417.074 297.284 419.348 298.266 421.17C307.042 437.451 324.282 448.525 344.069 448.525H344.12Z" fill="white"/>
</g>
<defs>
<clipPath id="clip0_1155_83">
<rect width="1400" height="276" fill="white" transform="translate(206 267)"/>
</clipPath>
</defs>
</svg>
