<svg width="800" height="357" viewBox="0 0 1811 809" fill="none" xmlns="http://www.w3.org/2000/svg">
<path fill-rule="evenodd" clip-rule="evenodd" d="M900.684 307.516H915.47C917.853 307.516 919.803 309.457 919.803 311.849V394.239H920.341C923.279 387.635 928.401 382.304 935.716 378.214C943.014 374.131 951.447 372.077 960.998 372.077C966.918 372.077 972.604 372.987 978.073 374.825C983.568 376.645 988.326 379.47 992.434 383.293C996.508 387.115 999.749 392.029 1002.19 398.018C1004.63 404.024 1005.86 411.105 1005.86 419.279V494.466C1005.86 496.858 1003.92 498.8 1001.53 498.8H986.714C984.322 498.8 982.38 496.858 982.38 494.466V425.788C982.38 420.05 981.609 415.144 980.023 411.062C978.471 406.971 976.374 403.678 973.783 401.156C971.182 398.642 968.175 396.813 964.777 395.678C961.397 394.551 957.887 393.988 954.212 393.988C949.358 393.988 944.834 394.768 940.674 396.337C936.496 397.905 932.856 400.367 929.719 403.756C926.581 407.145 924.146 411.452 922.43 416.661C920.688 421.879 919.803 428.05 919.803 435.183V494.466C919.803 496.858 917.853 498.8 915.47 498.8H900.684C898.292 498.8 896.35 496.858 896.35 494.466V311.849C896.35 309.457 898.292 307.516 900.684 307.516ZM855.801 351.6C853.964 352.995 851.441 352.64 849.89 350.924C845.149 345.663 839.411 341.511 832.72 338.452C824.738 334.794 816.478 332.974 807.95 332.974C797.532 332.974 788.093 334.933 779.651 338.842C771.236 342.751 764.025 348.09 758.027 354.867C752.02 361.654 747.384 369.61 744.081 378.737C740.771 387.855 739.132 397.631 739.132 408.058C739.132 417.8 740.684 427.004 743.821 435.706C746.95 444.39 751.457 452.035 757.385 458.648C763.279 465.252 770.49 470.47 779.01 474.283C787.53 478.123 797.176 480.021 807.95 480.021C818.541 480.021 827.841 477.846 835.858 473.503C842.644 469.82 848.564 464.871 853.608 458.665C855.099 456.828 857.725 456.403 859.606 457.825C859.606 457.825 870.258 465.842 873.803 468.511C875.865 470.071 875.831 473.174 874.262 474.864C874.028 475.115 873.788 475.373 873.54 475.64C872.501 476.756 871.336 478.008 870.006 479.38C866.514 482.942 861.937 486.504 856.2 490.058C850.471 493.62 843.554 496.757 835.45 499.453C827.39 502.148 818.038 503.483 807.421 503.483C792.834 503.483 779.651 500.71 767.942 495.145C756.207 489.59 746.205 482.283 737.945 473.243C729.694 464.212 723.402 453.994 719.059 442.605C714.691 431.234 712.516 419.706 712.516 408.058C712.516 393.818 714.873 380.644 719.562 368.57C724.251 356.48 730.821 346.053 739.262 337.273C747.678 328.493 757.81 321.672 769.632 316.81C781.454 311.948 794.481 309.512 808.73 309.512C820.907 309.512 832.859 311.852 844.594 316.541C854.848 320.65 863.506 326.691 870.509 334.664C872.147 336.528 871.757 339.44 869.79 340.948L855.801 351.6ZM1189.23 375.217H1174.41C1172.03 375.217 1170.08 377.158 1170.08 379.55V494.468C1170.08 496.86 1172.03 498.801 1174.41 498.801H1189.23C1191.62 498.801 1193.56 496.86 1193.56 494.468V435.185C1193.56 428.052 1194.43 421.881 1196.16 416.663C1197.9 411.454 1200.34 407.146 1203.46 403.758C1206.59 400.369 1210.23 397.907 1214.41 396.338C1218.6 394.77 1223.1 393.99 1227.98 393.99C1231.63 393.99 1235.14 394.553 1238.53 395.68C1241.91 396.815 1244.92 398.644 1247.52 401.157C1250.14 403.68 1252.24 406.973 1253.79 411.064C1255.34 415.146 1256.12 420.052 1256.12 425.789V494.468C1256.12 496.86 1258.05 498.801 1260.45 498.801H1275.26C1277.66 498.801 1279.6 496.86 1279.6 494.468V419.272C1279.6 411.107 1278.39 404.026 1275.95 398.02C1273.51 392.031 1270.25 387.117 1266.17 383.294C1262.09 379.472 1257.3 376.647 1251.83 374.827C1246.36 372.989 1240.66 372.079 1234.75 372.079C1225.19 372.079 1216.78 374.133 1209.45 378.215C1202.17 382.306 1197.02 387.637 1194.08 394.241H1193.56V379.55C1193.56 377.158 1191.62 375.217 1189.23 375.217ZM1308.96 375.217H1323.77C1326.17 375.217 1328.11 377.158 1328.11 379.55V394.241H1328.62C1331.56 387.637 1336.71 382.306 1344 378.215C1351.32 374.133 1359.73 372.079 1369.3 372.079C1375.21 372.079 1380.91 372.989 1386.38 374.827C1391.85 376.647 1396.64 379.472 1400.71 383.294C1404.79 387.117 1408.06 392.031 1410.5 398.02C1412.93 404.026 1414.15 411.107 1414.15 419.272V494.468C1414.15 496.86 1412.2 498.801 1409.81 498.801H1395C1392.6 498.801 1390.67 496.86 1390.67 494.468V425.789C1390.67 420.052 1389.89 415.146 1388.33 411.064C1386.78 406.973 1384.69 403.68 1382.06 401.157C1379.46 398.644 1376.45 396.815 1373.07 395.68C1369.68 394.553 1366.17 393.99 1362.53 393.99C1357.64 393.99 1353.14 394.77 1348.95 396.338C1344.78 397.907 1341.14 400.369 1338 403.758C1334.89 407.146 1332.45 411.454 1330.71 416.663C1328.97 421.881 1328.11 428.052 1328.11 435.185V494.468C1328.11 496.86 1326.17 498.801 1323.77 498.801H1308.96C1306.57 498.801 1304.63 496.86 1304.63 494.468V379.55C1304.63 377.158 1306.57 375.217 1308.96 375.217ZM1531.13 412.501C1532.6 416.843 1533.41 421.619 1533.59 426.836H1459.54C1459.54 422.667 1460.45 418.464 1462.27 414.2C1464.09 409.935 1466.66 406.07 1469.96 402.594C1473.26 399.11 1477.31 396.302 1482.11 394.109C1486.87 391.942 1492.13 390.859 1497.87 390.859C1503.79 390.859 1508.96 391.769 1513.38 393.606C1517.81 395.426 1521.5 397.949 1524.47 401.164C1527.43 404.38 1529.62 408.159 1531.13 412.501ZM1463.07 460.343C1460.71 455.905 1459.54 450.999 1459.54 445.617H1554.28C1556.73 445.617 1558.62 443.702 1558.62 441.266V437.262C1558.62 429.271 1557.53 421.41 1555.35 413.679C1553.18 405.939 1549.66 398.988 1544.79 392.808C1539.93 386.646 1533.73 381.645 1526.17 377.814C1518.6 373.992 1509.33 372.085 1498.39 372.085C1489.18 372.085 1480.66 373.74 1472.82 377.034C1465.03 380.345 1458.28 384.904 1452.62 390.719C1446.99 396.552 1442.54 403.408 1439.32 411.33C1436.11 419.243 1434.5 427.797 1434.5 437.011C1434.5 446.224 1435.97 454.778 1438.95 462.683C1441.9 470.605 1446.1 477.46 1451.6 483.285C1457.07 489.109 1463.74 493.677 1471.67 496.979C1479.58 500.272 1488.4 501.919 1498.12 501.919C1519.91 501.919 1537.17 494.673 1549.97 480.164C1551.61 478.301 1551.23 475.371 1549.27 473.863L1538.37 465.552C1536.55 464.165 1534.02 464.494 1532.49 466.184C1528.72 470.336 1524.64 473.777 1520.29 476.516C1514.91 479.896 1508.55 481.594 1501.27 481.594C1495.87 481.594 1490.65 480.719 1485.61 478.977C1480.57 477.252 1476.15 474.817 1472.32 471.688C1468.48 468.55 1465.4 464.772 1463.07 460.343ZM1585.78 307.516H1600.56C1602.95 307.516 1604.89 309.457 1604.89 311.849V494.466C1604.89 496.858 1602.95 498.8 1600.56 498.8H1585.78C1583.39 498.8 1581.45 496.858 1581.45 494.466V311.849C1581.45 309.457 1583.39 307.516 1585.78 307.516ZM1086.15 477.447C1111.68 477.447 1123.18 459.255 1123.18 437.041H1123.17C1123.17 437.032 1123.18 437.032 1123.18 437.032C1123.18 414.827 1111.68 396.626 1086.15 396.626C1060.62 396.626 1049.12 417.176 1049.12 437.032C1049.12 437.032 1049.13 437.032 1049.13 437.041H1049.12C1049.12 456.897 1060.62 477.447 1086.15 477.447ZM1121.5 379.453C1121.5 377.061 1123.43 375.12 1125.83 375.12H1140.71C1143.1 375.12 1145.05 377.061 1145.05 379.453V494.414C1145.05 496.806 1143.1 498.748 1140.71 498.748H1125.83C1123.43 498.748 1121.5 496.806 1121.5 494.414V482.315H1121.19C1118.15 486.544 1104.31 499.979 1085.72 499.979C1050.9 499.979 1026.38 473.509 1026.38 437.038H1026.39C1026.39 437.029 1026.38 437.029 1026.38 437.029C1026.38 400.558 1050.9 374.088 1085.72 374.088C1104.31 374.088 1118.15 387.522 1121.19 391.752H1121.5V379.453Z" fill="white"/>
<path fill-rule="evenodd" clip-rule="evenodd" d="M405.5 203C293.65 203 203 293.65 203 405.5C203 517.35 293.65 608 405.5 608C517.319 608 608 517.35 608 405.5C608 293.65 517.319 203 405.5 203ZM504.87 469.436L511.896 490.573C513.991 496.828 512.389 503.607 507.736 508.26C503.083 512.913 496.305 514.515 490.05 512.419L468.943 505.394C464.598 503.946 459.915 504.285 455.755 506.38C440.102 514.268 422.909 518.335 405.438 518.335C400.755 518.335 396.041 518.058 391.357 517.473C341.102 511.218 300.183 470.299 294.051 420.136C289.799 385.318 301.477 351.239 326.065 326.651C350.654 302.062 384.732 290.354 419.581 294.606C469.744 300.737 510.694 341.656 516.918 391.912C519.691 414.189 515.84 436.436 505.856 456.31C503.761 460.408 503.422 465.091 504.87 469.436Z" fill="white"/>
<path fill-rule="evenodd" clip-rule="evenodd" d="M499.793 393.982C494.524 351.491 459.891 316.889 417.493 311.712C413.487 311.219 409.543 310.973 405.569 310.973C380.302 310.973 356.299 320.802 338.305 338.796C317.476 359.626 307.616 388.466 311.19 417.985C316.366 460.383 350.969 495.016 393.459 500.285C412.347 502.627 431.174 499.391 447.967 490.918C456.286 486.727 465.653 486.049 474.404 488.946L495.51 495.971L488.485 474.865C485.558 466.114 486.267 456.747 490.457 448.427C498.9 431.696 502.135 412.839 499.793 393.982ZM372.199 427.413C363.448 427.413 359.781 421.097 359.781 405.598C359.781 390.099 363.448 383.783 372.199 383.783C380.949 383.783 384.616 390.099 384.616 405.598C384.616 421.097 380.949 427.413 372.199 427.413ZM438.815 427.413C430.065 427.413 426.398 421.097 426.398 405.598C426.398 390.099 430.065 383.783 438.815 383.783C447.566 383.783 451.233 390.099 451.233 405.598C451.264 421.097 447.597 427.413 438.815 427.413Z" fill="white"/>
</svg>
